<?xml version="1.0" standalone="no"?>
<!DOCTYPE svg PUBLIC "-//W3C//DTD SVG 20010904//EN"
 "http://www.w3.org/TR/2001/REC-SVG-20010904/DTD/svg10.dtd">
<svg version="1.0" xmlns="http://www.w3.org/2000/svg"
 width="512.000000pt" height="512.000000pt" viewBox="0 0 512.000000 512.000000"
 preserveAspectRatio="xMidYMid meet">
<metadata>
Created by potrace 1.11, written by Peter Selinger 2001-2013
</metadata>
<g transform="translate(0.000000,512.000000) scale(0.100000,-0.100000)"
fill="#000000" stroke="none">
<path d="M2520 5012 c-124 -132 -271 -353 -315 -475 l-11 -28 -74 66 c-41 36
-115 93 -163 127 -103 70 -297 172 -307 161 -4 -4 -17 -33 -28 -63 -66 -167
-108 -378 -111 -552 l-1 -57 -67 26 c-90 34 -177 59 -271 77 -115 23 -138 26
-249 32 -114 6 -106 11 -105 -61 0 -36 14 -200 17 -205 2 -3 6 -26 10 -50 8
-56 48 -208 74 -277 13 -37 16 -53 8 -54 -7 -1 -46 -3 -87 -5 -63 -3 -176 -20
-267 -38 -52 -11 -176 -49 -222 -68 -58 -23 -59 -14 14 -163 57 -116 145 -249
233 -351 l71 -82 -105 -51 c-102 -49 -267 -153 -329 -206 -101 -87 -135 -119
-135 -126 0 -11 33 -43 105 -104 33 -27 62 -53 65 -56 12 -15 182 -120 265
-164 50 -26 93 -51 97 -54 3 -3 -16 -31 -44 -61 -62 -68 -141 -174 -195 -261
-60 -95 -117 -219 -107 -229 19 -18 240 -88 329 -104 137 -25 259 -40 302 -38
34 2 35 -10 7 -79 -31 -80 -71 -228 -80 -294 -3 -27 -8 -53 -10 -56 -1 -3 -6
-50 -10 -105 -3 -54 -8 -101 -9 -104 -1 -3 1 -15 5 -27 8 -20 14 -21 92 -16
165 9 369 51 506 103 28 11 52 19 53 17 0 -1 2 -38 3 -82 2 -44 7 -105 11
-135 20 -161 96 -430 122 -430 31 0 323 157 353 190 3 3 16 13 30 21 14 9 62
49 108 89 46 39 84 70 85 68 1 -1 27 -52 57 -113 82 -165 166 -283 294 -417
l28 -30 32 33 c28 29 133 155 154 184 52 71 148 236 171 293 l14 33 46 -44
c67 -65 149 -129 243 -190 85 -54 255 -144 261 -136 12 15 50 120 76 209 40
136 65 295 66 417 0 29 1 53 1 53 1 0 33 -12 70 -26 78 -29 67 -26 193 -59 99
-25 224 -43 350 -49 l74 -3 -6 116 c-4 64 -9 130 -12 146 -33 177 -75 335 -97
363 -13 15 -16 13 57 17 33 1 89 6 125 10 63 7 77 9 130 20 14 2 40 7 57 10
18 3 70 17 115 32 46 15 88 28 93 29 24 5 65 24 65 30 0 15 -77 175 -117 243
-53 89 -166 239 -226 301 l-44 45 91 46 c169 86 309 181 435 296 l54 49 -64
58 c-121 111 -274 215 -411 280 l-58 27 75 89 c114 138 211 288 264 413 l20
46 -85 30 c-91 33 -216 68 -274 77 -19 3 -42 7 -50 9 -29 8 -108 16 -186 20
-44 2 -82 4 -86 4 -3 1 7 36 24 79 30 77 81 272 92 347 3 22 9 91 12 154 l7
113 -99 -6 c-54 -3 -119 -9 -144 -12 -81 -11 -254 -52 -325 -78 -38 -13 -71
-24 -71 -23 -1 1 -5 43 -8 92 -8 112 -16 185 -23 205 -3 8 -7 29 -10 45 -12
76 -73 269 -90 286 -13 13 -327 -152 -363 -191 -3 -3 -30 -24 -60 -46 -30 -23
-79 -64 -109 -91 l-54 -49 -69 135 c-37 75 -97 177 -133 226 -64 89 -181 225
-194 225 -3 0 -22 -17 -41 -38z m71 -632 c5 -38 2 -45 -17 -48 -25 -4 -49 22
-40 43 6 17 55 21 57 5z m-651 -139 c8 -16 5 -21 -20 -29 -37 -14 -60 7 -35
32 22 21 42 20 55 -3z m1348 0 c8 -4 12 -19 10 -32 -2 -19 -8 -23 -28 -21 -34
4 -44 16 -31 41 12 22 28 26 49 12z m-1957 -377 c17 -21 0 -49 -32 -49 -27 0
-37 28 -19 50 16 19 34 19 51 -1z m2513 0 c12 -12 13 -20 6 -35 -13 -23 -28
-24 -51 -3 -14 13 -16 21 -8 35 12 23 32 24 53 3z m-2884 -573 c0 -11 -7 -27
-16 -36 -15 -15 -18 -15 -35 1 -14 13 -16 21 -8 35 13 26 59 26 59 0z m3291
-43 c9 -18 8 -24 -6 -34 -22 -17 -55 -1 -55 26 0 34 44 40 61 8z m-3437 -654
c8 -21 -4 -44 -24 -44 -33 0 -48 43 -21 59 17 11 38 4 45 -15z m3559 -11 c5
-26 -12 -39 -38 -29 -14 5 -21 47 -9 58 12 13 42 -6 47 -29z m-3433 -652 c14
-27 13 -38 -5 -45 -36 -14 -69 35 -37 54 24 14 30 12 42 -9z m3296 -41 c2 -42
-32 -64 -56 -35 -20 24 -3 57 28 53 16 -2 27 -9 28 -18z m-2896 -571 c0 -4 -9
-13 -21 -19 -39 -22 -70 37 -31 59 13 8 21 6 35 -10 9 -12 17 -25 17 -30z
m2510 26 c10 -13 10 -19 -5 -35 -10 -11 -24 -20 -32 -20 -23 0 -27 30 -7 50
23 23 28 24 44 5z m-1966 -378 c25 -19 17 -52 -13 -52 -32 0 -49 28 -32 49 16
19 22 20 45 3z m1381 -35 c4 -10 -1 -22 -11 -29 -26 -19 -42 -16 -50 9 -12 40
45 60 61 20z m-669 -125 c12 -37 -39 -48 -60 -14 -8 13 -8 20 3 27 23 14 50 7
57 -13z"/>
</g>
</svg>
